<svg xmlns="http://www.w3.org/2000/svg" xmlns:xlink="http://www.w3.org/1999/xlink" contentStyleType="text/css" data-diagram-type="CLASS" height="986px" preserveAspectRatio="none" style="width:2496px;height:986px;background:#FFFFFF;" version="1.1" viewBox="0 0 2496 986" width="2496px" zoomAndPan="magnify"><title>Service Container with DIP Compliance</title><defs/><g><g class="title" data-source-line="2"><text fill="#000000" font-family="Verdana" font-size="22" font-weight="bold" lengthAdjust="spacing" textLength="484.5801" x="1001.3658" y="37.1182">Service Container with DIP Compliance</text></g><!--class IALSClient--><g class="entity" data-entity="IALSClient" data-source-line="5" data-uid="ent0002" id="entity_IALSClient"><rect fill="#FFFFFF" height="95.0439" rx="2.5" ry="2.5" style="stroke:#000000;stroke-width:1;" width="351.2432" x="1231.97" y="677.9573"/><ellipse cx="1367.3479" cy="691.9573" fill="#FFFFFF" rx="9" ry="9" style="stroke:#000000;stroke-width:1;"/><path d="M1363.7757,688.2224 L1363.7757,686.0642 L1371.1551,686.0642 L1371.1551,688.2224 L1368.6897,688.2224 L1368.6897,696.2991 L1371.1551,696.2991 L1371.1551,698.4573 L1363.7757,698.4573 L1363.7757,696.2991 L1366.241,696.2991 L1366.241,688.2224 Z " fill="#000000"/><text fill="#000000" font-family="Verdana" font-size="14" font-style="italic" lengthAdjust="spacing" textLength="72.9873" x="1384.8479" y="697.5252">IALSClient</text><line style="stroke:#000000;stroke-width:1;" x1="1232.97" x2="1582.2132" y1="705.9573" y2="705.9573"/><line style="stroke:#000000;stroke-width:1;" x1="1232.97" x2="1582.2132" y1="713.9573" y2="713.9573"/><ellipse cx="1242.97" cy="727.9646" fill="#FFFFFF" rx="3" ry="3" style="stroke:#000000;stroke-width:1;"/><text fill="#000000" font-family="Verdana" font-size="14" lengthAdjust="spacing" textLength="86.0508" x="1249.97" y="732.0325">start(): void</text><ellipse cx="1242.97" cy="744.9793" fill="#FFFFFF" rx="3" ry="3" style="stroke:#000000;stroke-width:1;"/><text fill="#000000" font-family="Verdana" font-size="14" lengthAdjust="spacing" textLength="121.4063" x="1249.97" y="749.0471">shutdown(): void</text><ellipse cx="1242.97" cy="761.9939" fill="#FFFFFF" rx="3" ry="3" style="stroke:#000000;stroke-width:1;"/><text fill="#000000" font-family="Verdana" font-size="14" lengthAdjust="spacing" textLength="327.2432" x="1249.97" y="766.0618">send_request(method: str, params: dict): dict</text></g><!--class IParserService--><g class="entity" data-entity="IParserService" data-source-line="11" data-uid="ent0003" id="entity_IParserService"><rect fill="#FFFFFF" height="78.0293" rx="2.5" ry="2.5" style="stroke:#000000;stroke-width:1;" width="459.1826" x="12" y="686.4673"/><ellipse cx="186.8623" cy="700.4673" fill="#FFFFFF" rx="9" ry="9" style="stroke:#000000;stroke-width:1;"/><path d="M183.29,696.7324 L183.29,694.5742 L190.6694,694.5742 L190.6694,696.7324 L188.2041,696.7324 L188.2041,704.8091 L190.6694,704.8091 L190.6694,706.9673 L183.29,706.9673 L183.29,704.8091 L185.7554,704.8091 L185.7554,696.7324 Z " fill="#000000"/><text fill="#000000" font-family="Verdana" font-size="14" font-style="italic" lengthAdjust="spacing" textLength="101.958" x="204.3623" y="706.0352">IParserService</text><line style="stroke:#000000;stroke-width:1;" x1="13" x2="470.1826" y1="714.4673" y2="714.4673"/><line style="stroke:#000000;stroke-width:1;" x1="13" x2="470.1826" y1="722.4673" y2="722.4673"/><ellipse cx="23" cy="736.4746" fill="#FFFFFF" rx="3" ry="3" style="stroke:#000000;stroke-width:1;"/><text fill="#000000" font-family="Verdana" font-size="14" lengthAdjust="spacing" textLength="227.7256" x="30" y="740.5425">parse(content: str): ParseResult</text><ellipse cx="23" cy="753.4893" fill="#FFFFFF" rx="3" ry="3" style="stroke:#000000;stroke-width:1;"/><text fill="#000000" font-family="Verdana" font-size="14" lengthAdjust="spacing" textLength="435.1826" x="30" y="757.5571">analyze_safety(ast: AST, operation: Operation): SafetyResult</text></g><!--class IPatternEngine--><g class="entity" data-entity="IPatternEngine" data-source-line="16" data-uid="ent0004" id="entity_IPatternEngine"><rect fill="#FFFFFF" height="78.0293" rx="2.5" ry="2.5" style="stroke:#000000;stroke-width:1;" width="419.4316" x="2069.88" y="686.4673"/><ellipse cx="2223.6432" cy="700.4673" fill="#FFFFFF" rx="9" ry="9" style="stroke:#000000;stroke-width:1;"/><path d="M2220.0709,696.7324 L2220.0709,694.5742 L2227.4503,694.5742 L2227.4503,696.7324 L2224.985,696.7324 L2224.985,704.8091 L2227.4503,704.8091 L2227.4503,706.9673 L2220.0709,706.9673 L2220.0709,704.8091 L2222.5363,704.8091 L2222.5363,696.7324 Z " fill="#000000"/><text fill="#000000" font-family="Verdana" font-size="14" font-style="italic" lengthAdjust="spacing" textLength="104.4053" x="2241.1432" y="706.0352">IPatternEngine</text><line style="stroke:#000000;stroke-width:1;" x1="2070.88" x2="2488.3116" y1="714.4673" y2="714.4673"/><line style="stroke:#000000;stroke-width:1;" x1="2070.88" x2="2488.3116" y1="722.4673" y2="722.4673"/><ellipse cx="2080.88" cy="736.4746" fill="#FFFFFF" rx="3" ry="3" style="stroke:#000000;stroke-width:1;"/><text fill="#000000" font-family="Verdana" font-size="14" lengthAdjust="spacing" textLength="279.2754" x="2087.88" y="740.5425">load_patterns(path: Path): list[Pattern]</text><ellipse cx="2080.88" cy="753.4893" fill="#FFFFFF" rx="3" ry="3" style="stroke:#000000;stroke-width:1;"/><text fill="#000000" font-family="Verdana" font-size="14" lengthAdjust="spacing" textLength="395.4316" x="2087.88" y="757.5571">apply_patterns(content: str, patterns: list[Pattern]): str</text></g><!--class IFileService--><g class="entity" data-entity="IFileService" data-source-line="21" data-uid="ent0005" id="entity_IFileService"><rect fill="#FFFFFF" height="78.0293" rx="2.5" ry="2.5" style="stroke:#000000;stroke-width:1;" width="365.3662" x="831.91" y="686.4673"/><ellipse cx="970.0462" cy="700.4673" fill="#FFFFFF" rx="9" ry="9" style="stroke:#000000;stroke-width:1;"/><path d="M966.474,696.7324 L966.474,694.5742 L973.8534,694.5742 L973.8534,696.7324 L971.388,696.7324 L971.388,704.8091 L973.8534,704.8091 L973.8534,706.9673 L966.474,706.9673 L966.474,704.8091 L968.9393,704.8091 L968.9393,696.7324 Z " fill="#000000"/><text fill="#000000" font-family="Verdana" font-size="14" font-style="italic" lengthAdjust="spacing" textLength="81.5938" x="987.5462" y="706.0352">IFileService</text><line style="stroke:#000000;stroke-width:1;" x1="832.91" x2="1196.2762" y1="714.4673" y2="714.4673"/><line style="stroke:#000000;stroke-width:1;" x1="832.91" x2="1196.2762" y1="722.4673" y2="722.4673"/><ellipse cx="842.91" cy="736.4746" fill="#FFFFFF" rx="3" ry="3" style="stroke:#000000;stroke-width:1;"/><text fill="#000000" font-family="Verdana" font-size="14" lengthAdjust="spacing" textLength="227.124" x="849.91" y="740.5425">read_file_async(path: Path): str</text><ellipse cx="842.91" cy="753.4893" fill="#FFFFFF" rx="3" ry="3" style="stroke:#000000;stroke-width:1;"/><text fill="#000000" font-family="Verdana" font-size="14" lengthAdjust="spacing" textLength="341.3662" x="849.91" y="757.5571">write_file_atomic(path: Path, content: str): void</text></g><!--class IMetricsCollector--><g class="entity" data-entity="IMetricsCollector" data-source-line="26" data-uid="ent0006" id="entity_IMetricsCollector"><rect fill="#FFFFFF" height="78.0293" rx="2.5" ry="2.5" style="stroke:#000000;stroke-width:1;" width="416.54" x="1618.32" y="686.4673"/><ellipse cx="1764.0749" cy="700.4673" fill="#FFFFFF" rx="9" ry="9" style="stroke:#000000;stroke-width:1;"/><path d="M1760.5026,696.7324 L1760.5026,694.5742 L1767.882,694.5742 L1767.882,696.7324 L1765.4167,696.7324 L1765.4167,704.8091 L1767.882,704.8091 L1767.882,706.9673 L1760.5026,706.9673 L1760.5026,704.8091 L1762.9679,704.8091 L1762.9679,696.7324 Z " fill="#000000"/><text fill="#000000" font-family="Verdana" font-size="14" font-style="italic" lengthAdjust="spacing" textLength="117.5303" x="1781.5749" y="706.0352">IMetricsCollector</text><line style="stroke:#000000;stroke-width:1;" x1="1619.32" x2="2033.86" y1="714.4673" y2="714.4673"/><line style="stroke:#000000;stroke-width:1;" x1="1619.32" x2="2033.86" y1="722.4673" y2="722.4673"/><ellipse cx="1629.32" cy="736.4746" fill="#FFFFFF" rx="3" ry="3" style="stroke:#000000;stroke-width:1;"/><text fill="#000000" font-family="Verdana" font-size="14" lengthAdjust="spacing" textLength="392.54" x="1636.32" y="740.5425">record_file_processed(path: Path, duration: float): void</text><ellipse cx="1629.32" cy="753.4893" fill="#FFFFFF" rx="3" ry="3" style="stroke:#000000;stroke-width:1;"/><text fill="#000000" font-family="Verdana" font-size="14" lengthAdjust="spacing" textLength="239.9209" x="1636.32" y="757.5571">get_summary(): MetricsSummary</text></g><!--class ServiceContainer--><g class="entity" data-entity="ServiceContainer" data-source-line="32" data-uid="ent0007" id="entity_ServiceContainer"><rect fill="#FFFFFF" height="146.0879" rx="2.5" ry="2.5" style="stroke:#000000;stroke-width:1;" width="445.791" x="891.7" y="454.8673"/><ellipse cx="1050.9866" cy="468.8673" fill="#FFFFFF" rx="9" ry="9" style="stroke:#000000;stroke-width:1;"/><path d="M1053.4598,475.0104 Q1052.8787,475.3092 1052.2396,475.4586 Q1051.6004,475.608 1050.8948,475.608 Q1048.388,475.608 1047.0682,473.9562 Q1045.7483,472.3043 1045.7483,469.1832 Q1045.7483,466.0538 1047.0682,464.402 Q1048.388,462.7501 1050.8948,462.7501 Q1051.6004,462.7501 1052.2479,462.8995 Q1052.8953,463.0489 1053.4598,463.3478 L1053.4598,466.0704 Q1052.8289,465.4894 1052.2354,465.2196 Q1051.6419,464.9498 1051.011,464.9498 Q1049.6663,464.9498 1048.9815,466.0165 Q1048.2967,467.0831 1048.2967,469.1832 Q1048.2967,471.275 1048.9815,472.3417 Q1049.6663,473.4083 1051.011,473.4083 Q1051.6419,473.4083 1052.2354,473.1385 Q1052.8289,472.8688 1053.4598,472.2877 Z " fill="#000000"/><text fill="#000000" font-family="Verdana" font-size="14" lengthAdjust="spacing" textLength="119.7178" x="1068.4866" y="474.4352">ServiceContainer</text><line style="stroke:#000000;stroke-width:1;" x1="892.7" x2="1336.491" y1="482.8673" y2="482.8673"/><rect fill="none" height="6" style="stroke:#000000;stroke-width:1;" width="6" x="899.7" y="493.8746"/><text fill="#000000" font-family="Verdana" font-size="14" lengthAdjust="spacing" textLength="154.1982" x="909.7" y="500.9425">config: AdaToolConfig</text><rect fill="none" height="6" style="stroke:#000000;stroke-width:1;" width="6" x="899.7" y="510.8893"/><text fill="#000000" font-family="Verdana" font-size="14" lengthAdjust="spacing" textLength="173.626" x="909.7" y="517.9571">services: dict[type, Any]</text><rect fill="none" height="6" style="stroke:#000000;stroke-width:1;" width="6" x="899.7" y="527.9039"/><text fill="#000000" font-family="Verdana" font-size="14" lengthAdjust="spacing" textLength="205.5156" x="909.7" y="534.9718">factories: dict[type, Callable]</text><line style="stroke:#000000;stroke-width:1;" x1="892.7" x2="1336.491" y1="541.9113" y2="541.9113"/><ellipse cx="902.7" cy="555.9186" fill="#FFFFFF" rx="3" ry="3" style="stroke:#000000;stroke-width:1;"/><text fill="#000000" font-family="Verdana" font-size="14" lengthAdjust="spacing" textLength="229.1611" x="909.7" y="559.9864">get[T](service_type: type[T]): T</text><ellipse cx="902.7" cy="572.9332" fill="#FFFFFF" rx="3" ry="3" style="stroke:#000000;stroke-width:1;"/><text fill="#000000" font-family="Verdana" font-size="14" lengthAdjust="spacing" textLength="421.791" x="909.7" y="577.0011">register_factory(service_type: type, factory: Callable): void</text><rect fill="#FFFFFF" height="6" style="stroke:#000000;stroke-width:1;" width="6" x="899.7" y="586.9479"/><text fill="#000000" font-family="Verdana" font-size="14" lengthAdjust="spacing" textLength="297.3975" x="909.7" y="594.0157">_configure_injection(binder: Binder): void</text></g><!--class AdaToolConfig--><g class="entity" data-entity="AdaToolConfig" data-source-line="42" data-uid="ent0008" id="entity_AdaToolConfig"><rect fill="#FFFFFF" height="129.0732" rx="2.5" ry="2.5" style="stroke:#000000;stroke-width:1;" width="190.7354" x="1611.22" y="59.7373"/><ellipse cx="1652.4466" cy="73.7373" fill="#FFFFFF" rx="9" ry="9" style="stroke:#000000;stroke-width:1;"/><path d="M1654.9197,79.8804 Q1654.3387,80.1792 1653.6995,80.3286 Q1653.0603,80.478 1652.3548,80.478 Q1649.8479,80.478 1648.5281,78.8262 Q1647.2083,77.1743 1647.2083,74.0532 Q1647.2083,70.9238 1648.5281,69.272 Q1649.8479,67.6201 1652.3548,67.6201 Q1653.0603,67.6201 1653.7078,67.7695 Q1654.3553,67.9189 1654.9197,68.2178 L1654.9197,70.9404 Q1654.2888,70.3594 1653.6953,70.0896 Q1653.1018,69.8198 1652.471,69.8198 Q1651.1263,69.8198 1650.4414,70.8865 Q1649.7566,71.9531 1649.7566,74.0532 Q1649.7566,76.145 1650.4414,77.2117 Q1651.1263,78.2783 1652.471,78.2783 Q1653.1018,78.2783 1653.6953,78.0085 Q1654.2888,77.7388 1654.9197,77.1577 Z " fill="#000000"/><text fill="#000000" font-family="Verdana" font-size="14" lengthAdjust="spacing" textLength="100.7822" x="1669.9466" y="79.3052">AdaToolConfig</text><line style="stroke:#000000;stroke-width:1;" x1="1612.22" x2="1800.9554" y1="87.7373" y2="87.7373"/><ellipse cx="1622.22" cy="101.7446" fill="none" rx="3" ry="3" style="stroke:#000000;stroke-width:1;"/><text fill="#000000" font-family="Verdana" font-size="14" lengthAdjust="spacing" textLength="160.7334" x="1629.22" y="105.8125">als_command: list[str]</text><ellipse cx="1622.22" cy="118.7593" fill="none" rx="3" ry="3" style="stroke:#000000;stroke-width:1;"/><text fill="#000000" font-family="Verdana" font-size="14" lengthAdjust="spacing" textLength="159.0381" x="1629.22" y="122.8271">parser_cache_size: int</text><ellipse cx="1622.22" cy="135.7739" fill="none" rx="3" ry="3" style="stroke:#000000;stroke-width:1;"/><text fill="#000000" font-family="Verdana" font-size="14" lengthAdjust="spacing" textLength="85.3193" x="1629.22" y="139.8418">workers: int</text><ellipse cx="1622.22" cy="152.7886" fill="none" rx="3" ry="3" style="stroke:#000000;stroke-width:1;"/><text fill="#000000" font-family="Verdana" font-size="14" lengthAdjust="spacing" textLength="152.8926" x="1629.22" y="156.8564">format: FormatConfig</text><ellipse cx="1622.22" cy="169.8032" fill="none" rx="3" ry="3" style="stroke:#000000;stroke-width:1;"/><text fill="#000000" font-family="Verdana" font-size="14" lengthAdjust="spacing" textLength="166.7354" x="1629.22" y="173.8711">rename: RenameConfig</text><line style="stroke:#000000;stroke-width:1;" x1="1612.22" x2="1800.9554" y1="180.8105" y2="180.8105"/></g><!--class ALSClient--><g class="entity" data-entity="ALSClient" data-source-line="51" data-uid="ent0009" id="entity_ALSClient"><rect fill="#FFFFFF" height="129.0732" rx="2.5" ry="2.5" style="stroke:#000000;stroke-width:1;" width="351.2432" x="1231.97" y="850.0073"/><ellipse cx="1370.2874" cy="864.0073" fill="#FFFFFF" rx="9" ry="9" style="stroke:#000000;stroke-width:1;"/><path d="M1372.7605,870.1504 Q1372.1795,870.4492 1371.5403,870.5986 Q1370.9012,870.748 1370.1956,870.748 Q1367.6888,870.748 1366.3689,869.0962 Q1365.0491,867.4443 1365.0491,864.3232 Q1365.0491,861.1938 1366.3689,859.542 Q1367.6888,857.8901 1370.1956,857.8901 Q1370.9012,857.8901 1371.5486,858.0395 Q1372.1961,858.1889 1372.7605,858.4878 L1372.7605,861.2104 Q1372.1297,860.6294 1371.5362,860.3596 Q1370.9427,860.0898 1370.3118,860.0898 Q1368.9671,860.0898 1368.2823,861.1565 Q1367.5974,862.2231 1367.5974,864.3232 Q1367.5974,866.415 1368.2823,867.4817 Q1368.9671,868.5483 1370.3118,868.5483 Q1370.9427,868.5483 1371.5362,868.2785 Q1372.1297,868.0088 1372.7605,867.4277 Z " fill="#000000"/><text fill="#000000" font-family="Verdana" font-size="14" lengthAdjust="spacing" textLength="67.1084" x="1387.7874" y="869.5752">ALSClient</text><line style="stroke:#000000;stroke-width:1;" x1="1232.97" x2="1582.2132" y1="878.0073" y2="878.0073"/><rect fill="none" height="6" style="stroke:#000000;stroke-width:1;" width="6" x="1239.97" y="889.0146"/><text fill="#000000" font-family="Verdana" font-size="14" lengthAdjust="spacing" textLength="132.2891" x="1249.97" y="896.0825">command: list[str]</text><rect fill="none" height="6" style="stroke:#000000;stroke-width:1;" width="6" x="1239.97" y="906.0293"/><text fill="#000000" font-family="Verdana" font-size="14" lengthAdjust="spacing" textLength="117.8311" x="1249.97" y="913.0971">process: Process</text><line style="stroke:#000000;stroke-width:1;" x1="1232.97" x2="1582.2132" y1="920.0366" y2="920.0366"/><ellipse cx="1242.97" cy="934.0439" fill="#FFFFFF" rx="3" ry="3" style="stroke:#000000;stroke-width:1;"/><text fill="#000000" font-family="Verdana" font-size="14" lengthAdjust="spacing" textLength="86.0508" x="1249.97" y="938.1118">start(): void</text><ellipse cx="1242.97" cy="951.0586" fill="#FFFFFF" rx="3" ry="3" style="stroke:#000000;stroke-width:1;"/><text fill="#000000" font-family="Verdana" font-size="14" lengthAdjust="spacing" textLength="121.4063" x="1249.97" y="955.1264">shutdown(): void</text><ellipse cx="1242.97" cy="968.0732" fill="#FFFFFF" rx="3" ry="3" style="stroke:#000000;stroke-width:1;"/><text fill="#000000" font-family="Verdana" font-size="14" lengthAdjust="spacing" textLength="327.2432" x="1249.97" y="972.1411">send_request(method: str, params: dict): dict</text></g><!--class AdaParser--><g class="entity" data-entity="AdaParser" data-source-line="59" data-uid="ent0010" id="entity_AdaParser"><rect fill="#FFFFFF" height="95.0439" rx="2.5" ry="2.5" style="stroke:#000000;stroke-width:1;" width="459.1826" x="12" y="867.0173"/><ellipse cx="202.2739" cy="881.0173" fill="#FFFFFF" rx="9" ry="9" style="stroke:#000000;stroke-width:1;"/><path d="M204.7471,887.1604 Q204.166,887.4592 203.5269,887.6086 Q202.8877,887.758 202.1821,887.758 Q199.6753,887.758 198.3555,886.1062 Q197.0356,884.4543 197.0356,881.3332 Q197.0356,878.2038 198.3555,876.552 Q199.6753,874.9001 202.1821,874.9001 Q202.8877,874.9001 203.5352,875.0495 Q204.1826,875.1989 204.7471,875.4978 L204.7471,878.2204 Q204.1162,877.6394 203.5227,877.3696 Q202.9292,877.0998 202.2983,877.0998 Q200.9536,877.0998 200.2688,878.1665 Q199.584,879.2331 199.584,881.3332 Q199.584,883.425 200.2688,884.4917 Q200.9536,885.5583 202.2983,885.5583 Q202.9292,885.5583 203.5227,885.2885 Q204.1162,885.0188 204.7471,884.4377 Z " fill="#000000"/><text fill="#000000" font-family="Verdana" font-size="14" lengthAdjust="spacing" textLength="71.1348" x="219.7739" y="886.5852">AdaParser</text><line style="stroke:#000000;stroke-width:1;" x1="13" x2="470.1826" y1="895.0173" y2="895.0173"/><rect fill="none" height="6" style="stroke:#000000;stroke-width:1;" width="6" x="20" y="906.0246"/><text fill="#000000" font-family="Verdana" font-size="14" lengthAdjust="spacing" textLength="121.9258" x="30" y="913.0925">cache: LRUCache</text><line style="stroke:#000000;stroke-width:1;" x1="13" x2="470.1826" y1="920.032" y2="920.032"/><ellipse cx="23" cy="934.0393" fill="#FFFFFF" rx="3" ry="3" style="stroke:#000000;stroke-width:1;"/><text fill="#000000" font-family="Verdana" font-size="14" lengthAdjust="spacing" textLength="227.7256" x="30" y="938.1071">parse(content: str): ParseResult</text><ellipse cx="23" cy="951.0539" fill="#FFFFFF" rx="3" ry="3" style="stroke:#000000;stroke-width:1;"/><text fill="#000000" font-family="Verdana" font-size="14" lengthAdjust="spacing" textLength="435.1826" x="30" y="955.1218">analyze_safety(ast: AST, operation: Operation): SafetyResult</text></g><!--class PatternEngine--><g class="entity" data-entity="PatternEngine" data-source-line="65" data-uid="ent0011" id="entity_PatternEngine"><rect fill="#FFFFFF" height="95.0439" rx="2.5" ry="2.5" style="stroke:#000000;stroke-width:1;" width="419.4316" x="2069.88" y="867.0173"/><ellipse cx="2226.5792" cy="881.0173" fill="#FFFFFF" rx="9" ry="9" style="stroke:#000000;stroke-width:1;"/><path d="M2229.0524,887.1604 Q2228.4713,887.4592 2227.8321,887.6086 Q2227.193,887.758 2226.4874,887.758 Q2223.9806,887.758 2222.6608,886.1062 Q2221.3409,884.4543 2221.3409,881.3332 Q2221.3409,878.2038 2222.6608,876.552 Q2223.9806,874.9001 2226.4874,874.9001 Q2227.193,874.9001 2227.8404,875.0495 Q2228.4879,875.1989 2229.0524,875.4978 L2229.0524,878.2204 Q2228.4215,877.6394 2227.828,877.3696 Q2227.2345,877.0998 2226.6036,877.0998 Q2225.2589,877.0998 2224.5741,878.1665 Q2223.8893,879.2331 2223.8893,881.3332 Q2223.8893,883.425 2224.5741,884.4917 Q2225.2589,885.5583 2226.6036,885.5583 Q2227.2345,885.5583 2227.828,885.2885 Q2228.4215,885.0188 2229.0524,884.4377 Z " fill="#000000"/><text fill="#000000" font-family="Verdana" font-size="14" lengthAdjust="spacing" textLength="98.5332" x="2244.0792" y="886.5852">PatternEngine</text><line style="stroke:#000000;stroke-width:1;" x1="2070.88" x2="2488.3116" y1="895.0173" y2="895.0173"/><rect fill="none" height="6" style="stroke:#000000;stroke-width:1;" width="6" x="2077.88" y="906.0246"/><text fill="#000000" font-family="Verdana" font-size="14" lengthAdjust="spacing" textLength="275.3105" x="2087.88" y="913.0925">pattern_cache: dict[Path, list[Pattern]]</text><line style="stroke:#000000;stroke-width:1;" x1="2070.88" x2="2488.3116" y1="920.032" y2="920.032"/><ellipse cx="2080.88" cy="934.0393" fill="#FFFFFF" rx="3" ry="3" style="stroke:#000000;stroke-width:1;"/><text fill="#000000" font-family="Verdana" font-size="14" lengthAdjust="spacing" textLength="279.2754" x="2087.88" y="938.1071">load_patterns(path: Path): list[Pattern]</text><ellipse cx="2080.88" cy="951.0539" fill="#FFFFFF" rx="3" ry="3" style="stroke:#000000;stroke-width:1;"/><text fill="#000000" font-family="Verdana" font-size="14" lengthAdjust="spacing" textLength="395.4316" x="2087.88" y="955.1218">apply_patterns(content: str, patterns: list[Pattern]): str</text></g><!--class AsyncFileService--><g class="entity" data-entity="AsyncFileService" data-source-line="71" data-uid="ent0012" id="entity_AsyncFileService"><rect fill="#FFFFFF" height="78.0293" rx="2.5" ry="2.5" style="stroke:#000000;stroke-width:1;" width="365.3662" x="831.91" y="875.5273"/><ellipse cx="952.3343" cy="889.5273" fill="#FFFFFF" rx="9" ry="9" style="stroke:#000000;stroke-width:1;"/><path d="M954.8075,895.6704 Q954.2264,895.9692 953.5872,896.1186 Q952.9481,896.268 952.2425,896.268 Q949.7357,896.268 948.4159,894.6162 Q947.096,892.9643 947.096,889.8432 Q947.096,886.7138 948.4159,885.062 Q949.7357,883.4101 952.2425,883.4101 Q952.9481,883.4101 953.5955,883.5595 Q954.243,883.7089 954.8075,884.0078 L954.8075,886.7304 Q954.1766,886.1494 953.5831,885.8796 Q952.9896,885.6098 952.3587,885.6098 Q951.014,885.6098 950.3292,886.6765 Q949.6444,887.7431 949.6444,889.8432 Q949.6444,891.935 950.3292,893.0017 Q951.014,894.0683 952.3587,894.0683 Q952.9896,894.0683 953.5831,893.7985 Q954.1766,893.5288 954.8075,892.9477 Z " fill="#000000"/><text fill="#000000" font-family="Verdana" font-size="14" lengthAdjust="spacing" textLength="117.0176" x="969.8343" y="895.0952">AsyncFileService</text><line style="stroke:#000000;stroke-width:1;" x1="832.91" x2="1196.2762" y1="903.5273" y2="903.5273"/><line style="stroke:#000000;stroke-width:1;" x1="832.91" x2="1196.2762" y1="911.5273" y2="911.5273"/><ellipse cx="842.91" cy="925.5346" fill="#FFFFFF" rx="3" ry="3" style="stroke:#000000;stroke-width:1;"/><text fill="#000000" font-family="Verdana" font-size="14" lengthAdjust="spacing" textLength="227.124" x="849.91" y="929.6025">read_file_async(path: Path): str</text><ellipse cx="842.91" cy="942.5493" fill="#FFFFFF" rx="3" ry="3" style="stroke:#000000;stroke-width:1;"/><text fill="#000000" font-family="Verdana" font-size="14" lengthAdjust="spacing" textLength="341.3662" x="849.91" y="946.6171">write_file_atomic(path: Path, content: str): void</text></g><!--class ThreadSafeMetrics--><g class="entity" data-entity="ThreadSafeMetrics" data-source-line="76" data-uid="ent0013" id="entity_ThreadSafeMetrics"><rect fill="#FFFFFF" height="112.0586" rx="2.5" ry="2.5" style="stroke:#000000;stroke-width:1;" width="416.54" x="1618.32" y="858.5073"/><ellipse cx="1757.7243" cy="872.5073" fill="#FFFFFF" rx="9" ry="9" style="stroke:#000000;stroke-width:1;"/><path d="M1760.1974,878.6504 Q1759.6164,878.9492 1758.9772,879.0986 Q1758.3381,879.248 1757.6325,879.248 Q1755.1257,879.248 1753.8058,877.5962 Q1752.486,875.9443 1752.486,872.8232 Q1752.486,869.6938 1753.8058,868.042 Q1755.1257,866.3901 1757.6325,866.3901 Q1758.3381,866.3901 1758.9855,866.5395 Q1759.633,866.6889 1760.1974,866.9878 L1760.1974,869.7104 Q1759.5666,869.1294 1758.9731,868.8596 Q1758.3796,868.5898 1757.7487,868.5898 Q1756.404,868.5898 1755.7192,869.6565 Q1755.0344,870.7231 1755.0344,872.8232 Q1755.0344,874.915 1755.7192,875.9817 Q1756.404,877.0483 1757.7487,877.0483 Q1758.3796,877.0483 1758.9731,876.7785 Q1759.5666,876.5088 1760.1974,875.9277 Z " fill="#000000"/><text fill="#000000" font-family="Verdana" font-size="14" lengthAdjust="spacing" textLength="130.2314" x="1775.2243" y="878.0752">ThreadSafeMetrics</text><line style="stroke:#000000;stroke-width:1;" x1="1619.32" x2="2033.86" y1="886.5073" y2="886.5073"/><rect fill="none" height="6" style="stroke:#000000;stroke-width:1;" width="6" x="1626.32" y="897.5146"/><text fill="#000000" font-family="Verdana" font-size="14" lengthAdjust="spacing" textLength="71.0664" x="1636.32" y="904.5825">lock: Lock</text><rect fill="none" height="6" style="stroke:#000000;stroke-width:1;" width="6" x="1626.32" y="914.5293"/><text fill="#000000" font-family="Verdana" font-size="14" lengthAdjust="spacing" textLength="88.5322" x="1636.32" y="921.5971">metrics: dict</text><line style="stroke:#000000;stroke-width:1;" x1="1619.32" x2="2033.86" y1="928.5366" y2="928.5366"/><ellipse cx="1629.32" cy="942.5439" fill="#FFFFFF" rx="3" ry="3" style="stroke:#000000;stroke-width:1;"/><text fill="#000000" font-family="Verdana" font-size="14" lengthAdjust="spacing" textLength="392.54" x="1636.32" y="946.6118">record_file_processed(path: Path, duration: float): void</text><ellipse cx="1629.32" cy="959.5586" fill="#FFFFFF" rx="3" ry="3" style="stroke:#000000;stroke-width:1;"/><text fill="#000000" font-family="Verdana" font-size="14" lengthAdjust="spacing" textLength="239.9209" x="1636.32" y="963.6264">get_summary(): MetricsSummary</text></g><!--class CommandContext--><g class="entity" data-entity="CommandContext" data-source-line="84" data-uid="ent0014" id="entity_CommandContext"><rect fill="#FFFFFF" height="112.0586" rx="2.5" ry="2.5" style="stroke:#000000;stroke-width:1;" width="211.6602" x="1179.76" y="265.8173"/><ellipse cx="1218.6965" cy="279.8173" fill="#FFFFFF" rx="9" ry="9" style="stroke:#000000;stroke-width:1;"/><path d="M1221.1697,285.9604 Q1220.5886,286.2592 1219.9495,286.4086 Q1219.3103,286.558 1218.6047,286.558 Q1216.0979,286.558 1214.7781,284.9062 Q1213.4582,283.2543 1213.4582,280.1332 Q1213.4582,277.0038 1214.7781,275.352 Q1216.0979,273.7001 1218.6047,273.7001 Q1219.3103,273.7001 1219.9578,273.8495 Q1220.6052,273.9989 1221.1697,274.2978 L1221.1697,277.0204 Q1220.5388,276.4394 1219.9453,276.1696 Q1219.3518,275.8998 1218.7209,275.8998 Q1217.3762,275.8998 1216.6914,276.9665 Q1216.0066,278.0331 1216.0066,280.1332 Q1216.0066,282.225 1216.6914,283.2917 Q1217.3762,284.3583 1218.7209,284.3583 Q1219.3518,284.3583 1219.9453,284.0885 Q1220.5388,283.8188 1221.1697,283.2377 Z " fill="#000000"/><text fill="#000000" font-family="Verdana" font-size="14" lengthAdjust="spacing" textLength="126.2871" x="1236.1965" y="285.3852">CommandContext</text><line style="stroke:#000000;stroke-width:1;" x1="1180.76" x2="1390.4202" y1="293.8173" y2="293.8173"/><ellipse cx="1190.76" cy="307.8246" fill="none" rx="3" ry="3" style="stroke:#000000;stroke-width:1;"/><text fill="#000000" font-family="Verdana" font-size="14" lengthAdjust="spacing" textLength="154.1982" x="1197.76" y="311.8925">config: AdaToolConfig</text><ellipse cx="1190.76" cy="324.8393" fill="none" rx="3" ry="3" style="stroke:#000000;stroke-width:1;"/><text fill="#000000" font-family="Verdana" font-size="14" lengthAdjust="spacing" textLength="135.2832" x="1197.76" y="328.9071">args: dict[str, Any]</text><ellipse cx="1190.76" cy="341.8539" fill="none" rx="3" ry="3" style="stroke:#000000;stroke-width:1;"/><text fill="#000000" font-family="Verdana" font-size="14" lengthAdjust="spacing" textLength="187.6602" x="1197.76" y="345.9218">services: ServiceContainer</text><ellipse cx="1190.76" cy="358.8686" fill="none" rx="3" ry="3" style="stroke:#000000;stroke-width:1;"/><text fill="#000000" font-family="Verdana" font-size="14" lengthAdjust="spacing" textLength="155.8936" x="1197.76" y="362.9364">event_bus: IEventBus</text><line style="stroke:#000000;stroke-width:1;" x1="1180.76" x2="1390.4202" y1="369.8759" y2="369.8759"/></g><!--class FormatCommand--><g class="entity" data-entity="FormatCommand" data-source-line="92" data-uid="ent0015" id="entity_FormatCommand"><rect fill="#FFFFFF" height="112.0586" rx="2.5" ry="2.5" style="stroke:#000000;stroke-width:1;" width="375.8594" x="1200.66" y="68.2473"/><ellipse cx="1324.0614" cy="82.2473" fill="#FFFFFF" rx="9" ry="9" style="stroke:#000000;stroke-width:1;"/><path d="M1326.5345,88.3904 Q1325.9535,88.6892 1325.3143,88.8386 Q1324.6751,88.988 1323.9696,88.988 Q1321.4627,88.988 1320.1429,87.3362 Q1318.8231,85.6843 1318.8231,82.5632 Q1318.8231,79.4338 1320.1429,77.782 Q1321.4627,76.1301 1323.9696,76.1301 Q1324.6751,76.1301 1325.3226,76.2795 Q1325.9701,76.4289 1326.5345,76.7278 L1326.5345,79.4504 Q1325.9037,78.8694 1325.3101,78.5996 Q1324.7166,78.3298 1324.0858,78.3298 Q1322.7411,78.3298 1322.0562,79.3965 Q1321.3714,80.4631 1321.3714,82.5632 Q1321.3714,84.655 1322.0562,85.7217 Q1322.7411,86.7883 1324.0858,86.7883 Q1324.7166,86.7883 1325.3101,86.5185 Q1325.9037,86.2488 1326.5345,85.6677 Z " fill="#000000"/><text fill="#000000" font-family="Verdana" font-size="14" lengthAdjust="spacing" textLength="121.5566" x="1341.5614" y="87.8152">FormatCommand</text><line style="stroke:#000000;stroke-width:1;" x1="1201.66" x2="1575.5194" y1="96.2473" y2="96.2473"/><line style="stroke:#000000;stroke-width:1;" x1="1201.66" x2="1575.5194" y1="104.2473" y2="104.2473"/><rect fill="#FFFFFF" height="6" style="stroke:#000000;stroke-width:1;" width="6" x="1208.66" y="115.2546"/><text fill="#000000" font-family="Verdana" font-size="14" lengthAdjust="spacing" textLength="194.6123" x="1218.66" y="122.3225">get_als_client(): IALSClient</text><rect fill="#FFFFFF" height="6" style="stroke:#000000;stroke-width:1;" width="6" x="1208.66" y="132.2693"/><text fill="#000000" font-family="Verdana" font-size="14" lengthAdjust="spacing" textLength="202.1592" x="1218.66" y="139.3371">get_parser(): IParserService</text><rect fill="#FFFFFF" height="6" style="stroke:#000000;stroke-width:1;" width="6" x="1208.66" y="149.2839"/><text fill="#000000" font-family="Verdana" font-size="14" lengthAdjust="spacing" textLength="267.1006" x="1218.66" y="156.3518">get_pattern_engine(): IPatternEngine</text><ellipse cx="1211.66" cy="169.2986" fill="#FFFFFF" rx="3" ry="3" style="stroke:#000000;stroke-width:1;"/><text fill="#000000" font-family="Verdana" font-size="14" lengthAdjust="spacing" textLength="351.8594" x="1218.66" y="173.3664">execute(context: CommandContext): Result[Any]</text></g><!--class Injector--><g class="entity" data-entity="Injector" data-source-line="100" data-uid="ent0016" id="entity_Injector"><rect fill="#FFFFFF" height="78.0293" rx="2.5" ry="2.5" style="stroke:#000000;stroke-width:1;" width="290.082" x="506.55" y="686.4673"/><ellipse cx="620.2443" cy="700.4673" fill="#FFFFFF" rx="9" ry="9" style="stroke:#000000;stroke-width:1;"/><path d="M622.7175,706.6104 Q622.1364,706.9092 621.4973,707.0586 Q620.8581,707.208 620.1525,707.208 Q617.6457,707.208 616.3259,705.5562 Q615.0061,703.9043 615.0061,700.7832 Q615.0061,697.6538 616.3259,696.002 Q617.6457,694.3501 620.1525,694.3501 Q620.8581,694.3501 621.5056,694.4995 Q622.153,694.6489 622.7175,694.9478 L622.7175,697.6704 Q622.0866,697.0894 621.4931,696.8196 Q620.8996,696.5498 620.2688,696.5498 Q618.924,696.5498 618.2392,697.6165 Q617.5544,698.6831 617.5544,700.7832 Q617.5544,702.875 618.2392,703.9417 Q618.924,705.0083 620.2688,705.0083 Q620.8996,705.0083 621.4931,704.7385 Q622.0866,704.4688 622.7175,703.8877 Z " fill="#000000"/><text fill="#000000" font-family="Verdana" font-size="14" lengthAdjust="spacing" textLength="55.1934" x="637.7443" y="706.0352">Injector</text><line style="stroke:#000000;stroke-width:1;" x1="507.55" x2="795.632" y1="714.4673" y2="714.4673"/><line style="stroke:#000000;stroke-width:1;" x1="507.55" x2="795.632" y1="722.4673" y2="722.4673"/><ellipse cx="517.55" cy="736.4746" fill="#FFFFFF" rx="3" ry="3" style="stroke:#000000;stroke-width:1;"/><text fill="#000000" font-family="Verdana" font-size="14" lengthAdjust="spacing" textLength="266.082" x="524.55" y="740.5425">configure(config_func: Callable): void</text><ellipse cx="517.55" cy="753.4893" fill="#FFFFFF" rx="3" ry="3" style="stroke:#000000;stroke-width:1;"/><text fill="#000000" font-family="Verdana" font-size="14" lengthAdjust="spacing" textLength="229.1611" x="524.55" y="757.5571">get[T](service_type: type[T]): T</text></g><g class="entity" data-entity="GMN33" data-source-line="127" data-uid="ent0034" id="entity_GMN33"><path d="M1372.3,491.3173 L1372.3,523.9173 L1337.84,527.9173 L1372.3,531.9173 L1372.3,564.5146 A0,0 0 0 0 1372.3,564.5146 L1608.8854,564.5146 A0,0 0 0 0 1608.8854,564.5146 L1608.8854,501.3173 L1598.8854,491.3173 L1372.3,491.3173 A0,0 0 0 0 1372.3,491.3173" fill="#FFFFFF" style="stroke:#000000;stroke-width:1;"/><path d="M1598.8854,491.3173 L1598.8854,501.3173 L1608.8854,501.3173 L1598.8854,491.3173" fill="#FFFFFF" style="stroke:#000000;stroke-width:1;"/><text fill="#000000" font-family="Verdana" font-size="13" lengthAdjust="spacing" textLength="206.8955" x="1378.3" y="509.3871">Container creates instances but</text><text fill="#000000" font-family="Verdana" font-size="13" lengthAdjust="spacing" textLength="193.4575" x="1378.3" y="525.1864">returns them as abstractions.</text><text fill="#000000" font-family="Verdana" font-size="13" lengthAdjust="spacing" textLength="188.2778" x="1378.3" y="540.9858">High-level code never knows</text><text fill="#000000" font-family="Verdana" font-size="13" lengthAdjust="spacing" textLength="215.5854" x="1378.3" y="556.7851">about concrete implementations.</text></g><g class="entity" data-entity="GMN36" data-source-line="134" data-uid="ent0037" id="entity_GMN36"><path d="M933.79,95.5773 L933.79,152.9753 A0,0 0 0 0 933.79,152.9753 L1165.3925,152.9753 A0,0 0 0 0 1165.3925,152.9753 L1165.3925,128.2773 L1200.17,124.2773 L1165.3925,120.2773 L1165.3925,105.5773 L1155.3925,95.5773 L933.79,95.5773 A0,0 0 0 0 933.79,95.5773" fill="#FFFFFF" style="stroke:#000000;stroke-width:1;"/><path d="M1155.3925,95.5773 L1155.3925,105.5773 L1165.3925,105.5773 L1155.3925,95.5773" fill="#FFFFFF" style="stroke:#000000;stroke-width:1;"/><text fill="#000000" font-family="Verdana" font-size="13" lengthAdjust="spacing" textLength="204.7817" x="939.79" y="113.6471">Commands retrieve services as</text><text fill="#000000" font-family="Verdana" font-size="13" lengthAdjust="spacing" textLength="210.6025" x="939.79" y="129.4464">abstractions from the container,</text><text fill="#000000" font-family="Verdana" font-size="13" lengthAdjust="spacing" textLength="166.7021" x="939.79" y="145.2458">ensuring DIP compliance.</text></g><!--link ServiceContainer to IALSClient--><g class="link" data-entity-1="ServiceContainer" data-entity-2="IALSClient" data-source-line="106" data-uid="lnk17" id="link_ServiceContainer_IALSClient"><path codeLine="106" d="M1141.73,601.3473 C1150.95,618.4973 1162.78,635.4173 1177.59,647.9573 C1193.65,661.5573 1206.7884,670.1871 1226.2584,679.4171" fill="none" id="ServiceContainer-to-IALSClient" style="stroke:#000000;stroke-width:1;stroke-dasharray:7,7;"/><polygon fill="#000000" points="1231.68,681.9873,1225.261,674.5176,1227.162,679.8455,1221.8341,681.7464,1231.68,681.9873" style="stroke:#000000;stroke-width:1;"/><text fill="#000000" font-family="Verdana" font-size="13" lengthAdjust="spacing" textLength="124.8203" x="1178.59" y="645.0271">creates abstraction</text></g><!--link ServiceContainer to IParserService--><g class="link" data-entity-1="ServiceContainer" data-entity-2="IParserService" data-source-line="107" data-uid="lnk18" id="link_ServiceContainer_IParserService"><path codeLine="107" d="M891.47,578.8973 C742.7,612.2273 555.9149,654.0657 419.0949,684.7157" fill="none" id="ServiceContainer-to-IParserService" style="stroke:#000000;stroke-width:1;stroke-dasharray:7,7;"/><polygon fill="#000000" points="413.24,686.0273,422.8967,687.9632,418.1191,684.9343,421.1479,680.1567,413.24,686.0273" style="stroke:#000000;stroke-width:1;"/><text fill="#000000" font-family="Verdana" font-size="13" lengthAdjust="spacing" textLength="124.8203" x="652.92" y="645.0271">creates abstraction</text></g><!--link ServiceContainer to IPatternEngine--><g class="link" data-entity-1="ServiceContainer" data-entity-2="IPatternEngine" data-source-line="108" data-uid="lnk19" id="link_ServiceContainer_IPatternEngine"><path codeLine="108" d="M1337.82,597.3773 C1343.45,598.6373 1349.05,599.8373 1354.59,600.9573 C1660.43,663.1973 1744.28,629.4673 2052.59,677.9573 C2067.89,680.3673 2077.8185,682.0145 2093.6785,684.9245" fill="none" id="ServiceContainer-to-IPatternEngine" style="stroke:#000000;stroke-width:1;stroke-dasharray:7,7;"/><polygon fill="#000000" points="2099.58,686.0073,2091.4496,680.4488,2094.6621,685.105,2090.0059,688.3174,2099.58,686.0073" style="stroke:#000000;stroke-width:1;"/><text fill="#000000" font-family="Verdana" font-size="13" lengthAdjust="spacing" textLength="124.8203" x="1762.78" y="645.0271">creates abstraction</text></g><!--link ServiceContainer to IFileService--><g class="link" data-entity-1="ServiceContainer" data-entity-2="IFileService" data-source-line="109" data-uid="lnk20" id="link_ServiceContainer_IFileService"><path codeLine="109" d="M1028.9,601.2973 C1021.96,610.5773 1015.95,620.5073 1011.59,630.9573 C1004.4,648.2073 1003.5849,662.8677 1005.6249,680.3577" fill="none" id="ServiceContainer-to-IFileService" style="stroke:#000000;stroke-width:1;stroke-dasharray:7,7;"/><polygon fill="#000000" points="1006.32,686.3173,1009.2504,676.9145,1005.7407,681.351,1001.3043,677.8413,1006.32,686.3173" style="stroke:#000000;stroke-width:1;"/><text fill="#000000" font-family="Verdana" font-size="13" lengthAdjust="spacing" textLength="124.8203" x="1012.59" y="645.0271">creates abstraction</text></g><!--link ServiceContainer to IMetricsCollector--><g class="link" data-entity-1="ServiceContainer" data-entity-2="IMetricsCollector" data-source-line="110" data-uid="lnk21" id="link_ServiceContainer_IMetricsCollector"><path codeLine="110" d="M1251.51,601.3373 C1297.11,625.2173 1337.88,646.2073 1343.59,647.9573 C1453.53,681.7073 1487.06,659.6873 1600.59,677.9573 C1615.62,680.3773 1625.2706,682.013 1640.8506,684.903" fill="none" id="ServiceContainer-to-IMetricsCollector" style="stroke:#000000;stroke-width:1;stroke-dasharray:7,7;"/><polygon fill="#000000" points="1646.75,685.9973,1638.6305,680.4229,1641.8339,685.0854,1637.1714,688.2888,1646.75,685.9973" style="stroke:#000000;stroke-width:1;"/><text fill="#000000" font-family="Verdana" font-size="13" lengthAdjust="spacing" textLength="124.8203" x="1344.59" y="645.0271">creates abstraction</text></g><!--reverse link IALSClient to ALSClient--><g class="link" data-entity-1="IALSClient" data-entity-2="ALSClient" data-source-line="112" data-uid="lnk22" id="link_IALSClient_ALSClient"><path codeLine="112" d="M1407.59,791.2073 C1407.59,814.3573 1407.59,824.6773 1407.59,849.7973" fill="none" id="IALSClient-backto-ALSClient" style="stroke:#000000;stroke-width:1;stroke-dasharray:7,7;"/><polygon fill="none" points="1407.59,773.2073,1401.59,791.2073,1413.59,791.2073,1407.59,773.2073" style="stroke:#000000;stroke-width:1;"/><text fill="#000000" font-family="Verdana" font-size="13" lengthAdjust="spacing" textLength="76.1338" x="1408.59" y="817.0771">implements</text></g><!--reverse link IParserService to AdaParser--><g class="link" data-entity-1="IParserService" data-entity-2="AdaParser" data-source-line="113" data-uid="lnk23" id="link_IParserService_AdaParser"><path codeLine="113" d="M241.59,782.7873 C241.59,812.2873 241.59,835.2073 241.59,866.6673" fill="none" id="IParserService-backto-AdaParser" style="stroke:#000000;stroke-width:1;stroke-dasharray:7,7;"/><polygon fill="none" points="241.59,764.7873,235.59,782.7873,247.59,782.7873,241.59,764.7873" style="stroke:#000000;stroke-width:1;"/><text fill="#000000" font-family="Verdana" font-size="13" lengthAdjust="spacing" textLength="76.1338" x="242.59" y="817.0771">implements</text></g><!--reverse link IPatternEngine to PatternEngine--><g class="link" data-entity-1="IPatternEngine" data-entity-2="PatternEngine" data-source-line="114" data-uid="lnk24" id="link_IPatternEngine_PatternEngine"><path codeLine="114" d="M2279.59,782.7873 C2279.59,812.2873 2279.59,835.2073 2279.59,866.6673" fill="none" id="IPatternEngine-backto-PatternEngine" style="stroke:#000000;stroke-width:1;stroke-dasharray:7,7;"/><polygon fill="none" points="2279.59,764.7873,2273.59,782.7873,2285.59,782.7873,2279.59,764.7873" style="stroke:#000000;stroke-width:1;"/><text fill="#000000" font-family="Verdana" font-size="13" lengthAdjust="spacing" textLength="76.1338" x="2280.59" y="817.0771">implements</text></g><!--reverse link IFileService to AsyncFileService--><g class="link" data-entity-1="IFileService" data-entity-2="AsyncFileService" data-source-line="115" data-uid="lnk25" id="link_IFileService_AsyncFileService"><path codeLine="115" d="M1014.59,782.7873 C1014.59,815.0673 1014.59,843.0173 1014.59,875.2873" fill="none" id="IFileService-backto-AsyncFileService" style="stroke:#000000;stroke-width:1;stroke-dasharray:7,7;"/><polygon fill="none" points="1014.59,764.7873,1008.59,782.7873,1020.59,782.7873,1014.59,764.7873" style="stroke:#000000;stroke-width:1;"/><text fill="#000000" font-family="Verdana" font-size="13" lengthAdjust="spacing" textLength="76.1338" x="1015.59" y="817.0771">implements</text></g><!--reverse link IMetricsCollector to ThreadSafeMetrics--><g class="link" data-entity-1="IMetricsCollector" data-entity-2="ThreadSafeMetrics" data-source-line="116" data-uid="lnk26" id="link_IMetricsCollector_ThreadSafeMetrics"><path codeLine="116" d="M1826.59,782.7873 C1826.59,809.7273 1826.59,828.1773 1826.59,858.2573" fill="none" id="IMetricsCollector-backto-ThreadSafeMetrics" style="stroke:#000000;stroke-width:1;stroke-dasharray:7,7;"/><polygon fill="none" points="1826.59,764.7873,1820.59,782.7873,1832.59,782.7873,1826.59,764.7873" style="stroke:#000000;stroke-width:1;"/><text fill="#000000" font-family="Verdana" font-size="13" lengthAdjust="spacing" textLength="76.1338" x="1827.59" y="817.0771">implements</text></g><!--reverse link CommandContext to ServiceContainer--><g class="link" data-entity-1="CommandContext" data-entity-2="ServiceContainer" data-source-line="118" data-uid="lnk27" id="link_CommandContext_ServiceContainer"><path codeLine="118" d="M1231.3835,387.5357 C1211.7035,411.0257 1196.22,429.4973 1175.22,454.5573" fill="none" id="CommandContext-backto-ServiceContainer" style="stroke:#000000;stroke-width:1;"/><polygon fill="none" points="1239.09,378.3373,1232.1706,380.3677,1231.3835,387.5357,1238.3029,385.5053,1239.09,378.3373" style="stroke:#000000;stroke-width:1;"/><text fill="#000000" font-family="Verdana" font-size="13" lengthAdjust="spacing" textLength="54.3867" x="1211.33" y="421.9371">contains</text></g><!--link FormatCommand to CommandContext--><g class="link" data-entity-1="FormatCommand" data-entity-2="CommandContext" data-source-line="119" data-uid="lnk28" id="link_FormatCommand_CommandContext"><path codeLine="119" d="M1359.35,180.7973 C1345.37,207.3373 1331.4856,233.7084 1317.5256,260.2184" fill="none" id="FormatCommand-to-CommandContext" style="stroke:#000000;stroke-width:1;stroke-dasharray:7,7;"/><polygon fill="#000000" points="1314.73,265.5273,1322.4627,259.4277,1317.0597,261.1032,1315.3842,255.7002,1314.73,265.5273" style="stroke:#000000;stroke-width:1;"/><text fill="#000000" font-family="Verdana" font-size="13" lengthAdjust="spacing" textLength="29.5166" x="1338.09" y="232.8871">uses</text></g><!--link FormatCommand to IALSClient--><g class="link" data-entity-1="FormatCommand" data-entity-2="IALSClient" data-source-line="120" data-uid="lnk29" id="link_FormatCommand_IALSClient"><path codeLine="120" d="M1443.61,180.5273 C1500.69,241.7573 1587.01,346.2873 1626.59,454.8673 C1653.47,528.5973 1636.7,552.5373 1639.59,630.9573 C1639.87,638.5073 1644.02,641.8373 1639.59,647.9573 C1630.92,659.9473 1615.3758,668.9647 1589.1658,678.8247" fill="none" id="FormatCommand-to-IALSClient" style="stroke:#000000;stroke-width:1;stroke-dasharray:7,7;"/><polygon fill="#000000" points="1583.55,680.9373,1593.3821,681.5122,1588.2298,679.1768,1590.5652,674.0245,1583.55,680.9373" style="stroke:#000000;stroke-width:1;"/><text fill="#000000" font-family="Verdana" font-size="13" lengthAdjust="spacing" textLength="152.7817" x="1614.94" y="421.9371">depends on abstraction</text></g><!--link FormatCommand to IParserService--><g class="link" data-entity-1="FormatCommand" data-entity-2="IParserService" data-source-line="121" data-uid="lnk30" id="link_FormatCommand_IParserService"><path codeLine="121" d="M1282.48,180.7073 C1052.31,300.9573 517.338,580.4291 320.388,683.3191" fill="none" id="FormatCommand-to-IParserService" style="stroke:#000000;stroke-width:1;stroke-dasharray:7,7;"/><polygon fill="#000000" points="315.07,686.0973,324.8992,685.4753,319.5017,683.7821,321.1949,678.3846,315.07,686.0973" style="stroke:#000000;stroke-width:1;"/><text fill="#000000" font-family="Verdana" font-size="13" lengthAdjust="spacing" textLength="152.7817" x="842.55" y="421.9371">depends on abstraction</text></g><!--link FormatCommand to IPatternEngine--><g class="link" data-entity-1="FormatCommand" data-entity-2="IPatternEngine" data-source-line="122" data-uid="lnk31" id="link_FormatCommand_IPatternEngine"><path codeLine="122" d="M1470.82,180.5773 C1649.5,300.7373 2064.4313,579.7788 2217.5013,682.7288" fill="none" id="FormatCommand-to-IPatternEngine" style="stroke:#000000;stroke-width:1;stroke-dasharray:7,7;"/><polygon fill="#000000" points="2222.48,686.0773,2217.2443,677.7354,2218.3311,683.2869,2212.7796,684.3737,2222.48,686.0773" style="stroke:#000000;stroke-width:1;"/><text fill="#000000" font-family="Verdana" font-size="13" lengthAdjust="spacing" textLength="152.7817" x="1824.81" y="421.9371">depends on abstraction</text></g><!--link ServiceContainer to Injector--><g class="link" data-entity-1="ServiceContainer" data-entity-2="Injector" data-source-line="124" data-uid="lnk32" id="link_ServiceContainer_Injector"><path codeLine="124" d="M942.85,601.4573 C874.9,630.1573 805.117,659.6322 748.097,683.7222" fill="none" id="ServiceContainer-to-Injector" style="stroke:#000000;stroke-width:1;"/><polygon fill="#000000" points="742.57,686.0573,752.4172,686.2394,747.1758,684.1114,749.3038,678.8701,742.57,686.0573" style="stroke:#000000;stroke-width:1;"/><text fill="#000000" font-family="Verdana" font-size="13" lengthAdjust="spacing" textLength="67.4185" x="870.21" y="645.0271">configures</text></g><!--SRC=[lLVRRkCs47tNLx1FiR6sFq0e5iXwTz40MtGHkq-18T3Ko693aIf99V6s_VSEBxfGTe3ceNcnQNA6S-Pmvf3-oTRG06a5vJApt0eWEz1Fd07PAcbn5ZHvvhOcd- - -urJJ2aubWoox6GovjA0hoi2G1JqQgocpN4cpp8OLSdVxRRSL7AGbVsM4V236KcqNovmyALw6cRgpfNgMwIJ8ij3mPmV6BXgmjIfpzDKhqb9D6vEJaZEx35_PFzaqv7Ug3UWUPGZRkha5mzGGYjy9VRtXFPXEM6z49HNd7r0OMe4zBwX1ozlTVaLK2vgwt7BoMpz4_vstYnlCCLWSoo_oX4n634BHicZ3WbdWe7OGR8qx2MxiG_Gv12njAywZzHIvuo1CpnoNVdc6v2iNa7AX0N5KE5rGSvOiHU8sS4RFcbk8LbOrV6gs8ZCY_R6bONy5gpapMoK4CAlq49if7QEtMc7j62YJhSkkfxf2mkoqA4vW2zCr3TLdLomnn2xCkFWtbqMSCK6DwUV7sdPmrYwFYf_mb4kwLqfi_K-_Oe93BBG7UsvXHMxb-U1NCKVCYS-MjrG8UXHmwD4-x0-Bk57XJ7BYFd4MqUyZ7oSyGT15sF5ynNmLevtp8S18ofeK8OTEGy7b7-1RS77aiWITaq_-Ut92DsGRpJt9aPqa_NXIL1ZS6gcLPImpFEl3s4owO9JLs2py1mB5amzbe_GZQ3DEL4et50lbg_yU27QPIzgWvxt_ZWizGgR1ei2Wwg1AuP5vNUd19ehYpl0Ao3M9rOLb5GR_g_eCD0RjwP4vWdBoxVxthHkzdn05E9SQjEwLeuZGVF66lakKvF3UWXK9T7hqde8Lmkvh5y6H62KbaYKKUyJZmq__imcByTJVGysseRIzci6B9Pt1ktPwrSO4ebrl5bXxJTlmgFIf5ov_Eb7MFan4RwwNVXcUaCBYsE7wtHSt_jIP1AWX9RJOEqJ9m3Y2SVYlGExr82GO-7QCUDdnxUr86PyFWq4G7x-ONFGJWr3YuEi-6auw8QJo0gopiH5Vi2vI2fTEbrmtFNXkV8wVVMeWsPaCGXkJkVE_XqjkKEH561LL9zarzVuFbuGFVGyYI63DMuDfkZSPYsyocrtSRPlDn-d3AoSefzIcfVEAL_fsUfldL6tUuZbj-BVuNJmnhZjd4of-_dkp8LDcXYl6PBFSW-cWw7FJQRBUT9x_r7oQOTXtBdIf_KLctkbIfXAlRAO2Qhs-VFRalYznRBAq0nsZimrohpTNx9BQ2XrlNCjFMR_YDQ-jjtYctBxYULadw_N7iJdpiJ6HBQdmXQ7vgKQcgcjwD-xILnMoPjsV84EEdHCaVAHqUAaHzr-Aq5IPDxZ-2-w-5gYQ0YENG2GEDNcKwjczHkXHTTP1klhOsMHEHnt825L0vP4cz7YOKNgrAmgCCAWuGl9XHb2aqgfnSFig0Br24v2cqroU4brXC87mBm00]--></g></svg>